PathFileType	4	(X/Y/Z)	C:/Users/opensim2020/Desktop/walking_exp_matlab/subject03_walking12_straight_04.trc	
DataRate	CameraRate	NumFrames	NumMarkers	Units	OrigDataRate	OrigDataStartFrame	OrigNumFrames	
100.00	100.00	9	48	mm	100.00	2221	202	
Frame#	Time	LFHD			RFHD			LBHD			RBHD			C7			T10			CLAV			STRN			RBAK			LSHO			LUPA			LELB			LFRM			LWRA			LWRB			LFIN			RSHO			RUPA			RELB			RFRM			RWRA			RWRB			RFIN			LASI			RASI			LPSI			RPSI			LTHI			LKNE			LTIB			LANK			LHEE			LTOE			RTHI			RKNE			RTIB			RANK			RHEE			RTOE			*39			*40			*41			*42			*43			*44			*45			*46			*47			
		X1	Y1	Z1	X2	Y2	Z2	X3	Y3	Z3	X4	Y4	Z4	X5	Y5	Z5	X6	Y6	Z6	X7	Y7	Z7	X8	Y8	Z8	X9	Y9	Z9	X10	Y10	Z10	X11	Y11	Z11	X12	Y12	Z12	X13	Y13	Z13	X14	Y14	Z14	X15	Y15	Z15	X16	Y16	Z16	X17	Y17	Z17	X18	Y18	Z18	X19	Y19	Z19	X20	Y20	Z20	X21	Y21	Z21	X22	Y22	Z22	X23	Y23	Z23	X24	Y24	Z24	X25	Y25	Z25	X26	Y26	Z26	X27	Y27	Z27	X28	Y28	Z28	X29	Y29	Z29	X30	Y30	Z30	X31	Y31	Z31	X32	Y32	Z32	X33	Y33	Z33	X34	Y34	Z34	X35	Y35	Z35	X36	Y36	Z36	X37	Y37	Z37	X38	Y38	Z38	X39	Y39	Z39	X40	Y40	Z40	X41	Y41	Z41	X42	Y42	Z42	X43	Y43	Z43	X44	Y44	Z44	X45	Y45	Z45	X46	Y46	Z46	X47	Y47	Z47	X48	Y48	Z48	

76	0.750	1493.61475	502.60074	1614.76929	1363.77075	530.48248	1620.58337	1514.03613	630.30109	1572.70898	1385.34497	652.05487	1578.11121	1456.08484	668.76007	1410.14038	1444.96423	697.77057	1095.75464	1435.81580	548.07971	1335.38708	1430.44275	500.87659	1171.28003	1360.46387	730.10010	1232.94385	1596.85742	567.94928	1367.80664	1667.68872	584.82196	1169.37439	1681.02368	594.87048	1046.22852	1684.76807	598.17651	915.67212	1660.62292	620.20691	794.91205	1716.40002	623.05957	807.46173	1710.17029	648.75525	723.07666	1285.04724	616.04688	1362.85693	1211.90027	591.88007	1142.86389	1202.99207	556.44958	1035.23572	1208.51367	501.47653	910.50293	1249.63525	442.41495	834.21954	1209.35742	472.12659	814.37726	1222.50378	423.62476	759.14709	1549.55298	516.72131	947.54779	1313.89209	546.08307	923.36578	1517.33142	684.99023	962.25818	1368.68359	698.99640	952.04633	1609.63806	527.92682	648.43091	1567.97278	494.61038	475.41156	1579.88220	544.51276	280.03064	1543.63647	574.86957	71.90601	1511.48669	619.56396	37.15879	1503.66882	426.50479	34.71452	1283.73889	580.32251	620.66589	1304.91553	536.36426	446.26773	1316.63074	686.44116	333.76672	1372.01843	859.46747	213.51489	1429.79578	905.40863	229.67253	1382.26233	817.61658	78.52647																											 
77	0.760	1493.39868	488.73935	1616.18445	1363.53479	516.67950	1622.00012	1512.96655	615.60150	1574.12500	1385.24109	638.46362	1579.97363	1456.28870	655.27698	1411.83203	1446.08423	684.25116	1097.41711	1435.61340	534.76648	1337.10657	1430.32166	487.56384	1172.96375	1361.63513	717.30200	1234.34106	1596.87671	554.18201	1369.75378	1668.15100	567.24921	1171.07141	1681.95837	575.28009	1047.96887	1685.68347	575.06128	917.22186	1661.98975	593.82629	796.15527	1717.71948	596.92615	808.68512	1712.04700	614.99225	723.31653	1285.14783	603.71826	1364.28748	1212.38757	581.68842	1143.68091	1203.31128	547.12677	1035.75793	1208.27771	494.42529	909.88745	1248.82959	436.63199	832.20282	1208.58948	466.98715	813.17480	1221.33740	419.85135	756.71857	1550.40918	503.08841	948.49109	1314.67725	531.94342	925.92798	1518.28394	671.35858	963.93042	1369.67090	685.63593	954.40558	1609.29285	518.19189	648.85907	1567.72986	489.41379	474.81943	1579.63892	541.93994	280.05701	1543.51257	574.54620	72.17828	1511.39221	619.47809	37.60126	1503.47656	426.31616	34.64925	1285.19250	560.32953	623.04523	1305.21191	512.08356	450.19174	1317.63965	659.37109	334.18073	1373.86487	828.78741	209.10452	1431.14417	876.08490	223.17632	1384.81836	779.56836	76.63575																											 
78	0.770	1493.05750	475.03406	1617.54419	1363.17163	503.03842	1623.32202	1512.72253	601.85187	1575.84619	1384.99829	624.83075	1581.65198	1456.45715	641.76532	1413.40735	1447.27686	670.80682	1098.96448	1435.37646	521.46368	1338.61292	1430.36633	474.25226	1174.50830	1362.53101	704.44690	1235.80188	1596.81018	540.73773	1371.52551	1668.26416	550.40393	1172.90771	1682.48926	555.25684	1049.79407	1686.65088	551.63025	919.13702	1663.07935	566.78424	797.71729	1718.68665	570.34735	810.18542	1713.50098	580.64777	724.53241	1285.14099	591.49268	1365.58313	1212.84985	571.60107	1144.54993	1203.54626	538.11450	1036.30359	1207.97717	487.64902	909.35858	1247.87280	431.20035	830.29205	1207.75684	462.29065	812.07581	1220.00171	416.19653	754.49048	1551.24475	489.80338	949.20282	1315.54102	518.56964	928.57806	1519.19116	657.87885	965.44940	1370.57605	672.34296	956.85101	1608.63904	508.97095	648.68256	1567.35388	484.46060	474.30176	1579.42371	539.58685	280.20276	1543.34473	574.11884	72.56248	1511.30322	619.40271	38.21971	1503.46667	426.07971	34.56491	1285.82983	540.66412	625.76263	1305.60474	488.41394	454.16528	1318.76709	632.04449	333.73120	1375.24988	797.16925	202.92107	1432.34265	845.79053	214.71501	1387.19885	740.18298	74.03611																											 
79	0.780	1492.69006	461.28372	1618.83667	1362.75085	489.43484	1624.51770	1512.51428	588.24011	1577.52991	1384.72168	611.22668	1583.13464	1456.70251	628.43958	1414.88879	1448.42407	657.43103	1100.40540	1435.21631	508.13373	1340.09998	1430.51599	461.10794	1175.95667	1363.37378	691.63574	1237.23450	1596.73145	527.29077	1373.27393	1668.50134	533.93274	1174.85986	1683.12561	535.50696	1051.80896	1687.29126	528.00732	921.26147	1663.82031	539.17480	799.69269	1719.30396	543.30182	812.06134	1714.64209	545.96442	726.83350	1285.25500	579.18878	1366.86877	1213.22461	561.51764	1145.47290	1203.81799	529.24353	1036.83411	1207.54810	481.21210	908.91815	1246.80725	426.23843	828.49866	1206.72424	457.85751	811.02966	1218.46606	413.10718	752.46307	1552.13916	476.72244	949.85254	1316.44653	505.28839	931.17151	1519.91504	644.50427	966.84003	1371.30933	659.00604	959.13251	1608.47632	499.46063	648.74786	1567.02209	479.66376	473.70093	1579.18335	537.30255	280.40942	1543.13867	573.86926	72.97846	1511.12329	619.26593	38.87135	1503.44971	425.89941	34.47514	1286.15771	521.42145	628.55402	1306.03125	465.40073	458.30948	1319.78137	604.66827	332.68115	1376.56726	764.81525	195.64793	1433.40881	814.40674	204.60849	1389.19250	699.76971	70.85117																											 
80	0.790	1492.18762	447.65656	1619.95374	1362.22070	475.86261	1625.50330	1512.20520	574.62286	1579.01257	1384.38379	597.75867	1584.50500	1456.83362	615.12213	1416.18164	1449.56836	644.14569	1101.71948	1434.99866	494.82211	1341.36609	1430.63525	447.93515	1177.13513	1364.08716	678.78467	1238.61707	1596.57153	513.96509	1374.86316	1668.85059	517.77802	1176.86438	1683.75806	515.99310	1053.89246	1687.69214	504.40353	923.54407	1664.27441	510.87405	802.08020	1719.53992	515.82037	814.17352	1715.44971	511.08282	730.08319	1285.25513	566.82532	1368.15283	1213.52222	551.47485	1146.28992	1203.95569	520.57281	1037.32312	1207.03992	475.05081	908.39081	1245.67969	421.42719	826.62213	1205.61841	453.81653	810.02307	1216.76282	410.12485	750.31873	1552.97839	463.73419	950.30383	1317.25256	492.04440	933.63470	1520.56433	631.28394	968.06702	1371.99023	645.77252	961.22272	1607.66199	491.25824	648.38049	1566.75427	475.11209	473.17761	1578.86609	535.07568	280.65097	1543.20374	574.03546	73.84816	1510.75525	619.15216	39.78387	1503.45520	425.72192	34.44523	1286.38245	502.71521	631.37286	1306.55469	442.84427	462.45847	1320.57532	577.07495	330.90286	1377.76184	731.36676	187.28798	1434.66333	781.89581	193.25294	1390.77368	658.49475	67.14771																											 
81	0.800	1491.63196	434.03247	1620.95398	1361.66760	462.35779	1626.33435	1511.85901	561.02869	1580.29883	1384.03552	584.25665	1585.61108	1456.97375	601.79852	1417.39893	1450.67163	630.90173	1102.88342	1434.83435	481.48822	1342.49243	1430.86584	434.78851	1178.18774	1364.69324	665.90247	1239.82227	1596.45349	500.61093	1376.37512	1669.39941	501.97659	1178.88501	1684.53210	497.73947	1055.89917	1688.07104	480.41946	926.18890	1664.58606	481.65247	804.95520	1719.43774	487.92941	816.60089	1716.04492	476.35608	734.27246	1285.30627	554.31036	1369.22449	1213.68420	541.45209	1146.98608	1203.96704	511.97943	1037.61279	1206.45813	468.97983	907.85345	1244.49304	416.75128	824.78485	1204.51379	449.81665	808.96863	1215.05530	407.40012	748.34662	1553.69763	451.45813	950.40436	1317.90466	478.84027	935.84290	1521.12048	618.15845	969.14801	1372.54504	632.62170	963.05341	1607.23657	482.94263	648.17310	1566.64844	470.97369	472.75668	1578.55750	532.89728	281.01196	1542.51416	573.07233	73.96440	1510.00720	618.27576	39.96058	1503.47437	425.50104	34.34509	1286.34680	484.72473	634.27411	1307.07019	420.85458	466.55600	1321.11597	549.41162	328.67206	1378.56812	696.87329	178.05592	1435.55847	747.92102	180.74623	1391.45825	616.48499	63.14526																											 
82	0.810	1491.08643	420.43784	1621.76062	1361.08545	448.80869	1626.98096	1511.39783	547.40210	1581.36743	1383.61047	570.73071	1586.49341	1456.93018	588.39178	1418.36963	1451.69885	617.76483	1103.92053	1434.69751	468.23572	1343.41638	1431.07544	421.76337	1179.10266	1365.29309	653.03949	1240.91138	1596.31323	487.29623	1377.72485	1670.12817	486.42578	1180.86182	1685.50427	477.53848	1058.26746	1688.55078	456.29968	929.15002	1664.28259	452.96524	807.95959	1719.09460	459.71960	819.30701	1715.72839	442.51297	738.59735	1285.33215	541.69885	1369.93848	1213.75269	531.44220	1147.56165	1203.84924	503.46808	1037.82031	1205.78870	463.10355	907.09900	1243.15906	412.31616	822.74695	1203.39343	445.90738	807.82458	1213.25952	404.90988	746.20880	1554.58789	438.64975	950.64490	1318.51306	465.34360	937.59863	1521.40527	605.09949	969.96655	1372.98157	619.53870	964.52930	1606.80591	474.87964	648.01642	1566.38525	466.47418	472.27710	1578.32129	530.83087	281.44495	1542.26514	572.89746	74.83507	1510.29260	619.00378	41.92501	1503.56250	425.32852	34.35457	1286.15149	466.92557	636.93579	1307.65222	399.55801	470.54089	1321.46094	521.60120	326.09509	1378.79407	661.54529	168.01050	1436.02515	712.48651	167.72208	1391.36560	573.81067	59.01992																											 
83	0.820	1490.50562	406.77573	1622.41589	1360.47913	435.24332	1627.37549	1510.99719	533.81879	1582.22327	1383.17859	557.24548	1587.11255	1456.89612	575.10101	1419.22388	1452.65613	604.63434	1104.74304	1434.58838	455.01999	1344.09045	1431.33923	408.64987	1179.69910	1365.89404	640.19672	1241.78394	1596.15466	473.93417	1378.90930	1671.00500	471.08752	1182.67847	1686.54309	458.79120	1060.49133	1688.94910	432.09882	932.27075	1663.83142	423.08963	811.83319	1718.40527	431.31442	822.31763	1715.32434	408.70700	743.55872	1285.33777	528.88452	1370.50391	1213.77307	521.36310	1147.86853	1203.52979	495.02420	1037.71033	1205.03394	457.21112	906.23376	1241.84644	407.96960	820.58075	1201.86145	441.92657	806.76685	1211.53210	402.23666	744.06812	1555.27747	425.95642	950.69720	1319.06763	452.35428	938.91302	1521.65771	592.19647	970.60284	1373.31128	606.45917	965.61230	1606.42554	467.17102	647.89636	1566.42334	462.46027	471.98010	1578.06543	528.84515	281.96597	1541.66589	572.23529	75.26969	1509.96497	618.76917	43.29989	1503.71179	425.16852	34.43954	1285.95593	449.47110	639.28003	1308.21436	378.82974	474.26315	1321.34863	493.70749	323.14502	1378.96704	625.21167	157.78873	1436.51587	675.95258	154.03990	1390.41125	530.67957	55.08427																											 
84	0.830	1489.82849	393.25131	1622.74353	1359.82153	421.85818	1627.55005	1510.54749	520.22772	1582.94653	1382.73303	543.77374	1587.49609	1456.79004	561.75769	1419.81226	1453.51758	591.57806	1105.37268	1434.43945	441.67755	1344.50879	1431.53467	395.59460	1180.03699	1366.65271	627.31531	1242.48694	1595.95471	460.63370	1379.81653	1671.90979	455.84109	1184.34766	1687.69092	439.85995	1062.43994	1689.26672	407.99979	935.61072	1663.26208	392.31680	816.40894	1717.46960	402.69891	825.59149	1714.53442	375.42349	748.83514	1285.38196	515.97876	1370.65259	1213.77551	511.18045	1147.92676	1203.10864	486.52225	1037.44128	1204.17908	451.28625	905.12482	1240.43628	403.48050	818.34271	1200.56702	438.16690	805.36383	1209.76636	399.81506	741.75458	1555.97058	413.29651	950.51996	1319.45996	439.04614	939.87024	1521.74146	579.33881	970.98425	1373.51416	593.44604	966.25299	1605.95068	459.43558	647.74408	1566.50476	458.44019	471.69736	1577.74634	526.87439	282.56805	1541.37830	571.82843	76.10574	1509.64990	618.61176	44.65530	1503.72839	424.93872	34.34666	1285.56543	432.72705	641.83002	1308.66797	358.77725	477.64471	1321.46350	466.26132	320.27390	1378.99463	587.78119	147.14778	1436.60864	638.13300	140.04546	1388.97180	486.73599	51.19246																											 
